# xmcd
#
# Track frame offsets:
#	150
#	23051
#	36033
#	53521
#	75638
#	96057
#	114892
#	131572
#	148481
#	171953
#	190282
#	208627
#	227683
#
# Disc length: 3271 seconds
# Revision: 0
# Processed by: cddbd v1.5.2PL0 Copyright (c) Steve Scherf et al.
# Submitted via: dBpowerAMP V12.0
#
DISCID=a90cc50d
DTITLE=Vince Gil - Vince Gill CD 2
DYEAR=1900
DGENRE=
TTITLE0=What You Dont Say (Feat. Leann Rimes)
TTITLE1=The Reason Why (Feat. Alison Krauss)
TTITLE2=The Rock Of Your Love (Feat. Bonnie Raitt)
TTITLE3=What You Give Away (Feat. Sheryl Crow)
TTITLE4=Faint Of Heart (Duet With Diana Krall)
TTITLE5=Time To Carry On (Feat. Jenny Gill)
TTITLE6=No Easy Way
TTITLE7=This Memory Of You (Feat. Trisha Yearwood)
TTITLE8=How Lonely Looks
TTITLE9=Tell Me One More Time About Jesus (Feat. Amy Grant)
TTITLE10=Everything And Nothing (Feat. Katrina Elam)
TTITLE11=Which Way Will You Go
TTITLE12=These Days
EXTD=
EXTT0=
EXTT1=
EXTT2=
EXTT3=
EXTT4=
EXTT5=
EXTT6=
EXTT7=
EXTT8=
EXTT9=
EXTT10=
EXTT11=
EXTT12=
PLAYORDER=
